<svg width="13" height="13" viewBox="0 0 13 13" fill="none" xmlns="http://www.w3.org/2000/svg">
<path fill-rule="evenodd" clip-rule="evenodd" d="M9.17877 1.09274C10.166 0.771219 11.2262 1.31256 11.5466 2.30148C11.8672 3.29055 11.327 4.35284 10.3402 4.67432C9.35327 4.99567 8.29323 4.45437 7.97238 3.46529C7.65186 2.47633 8.19191 1.41393 9.17877 1.09274ZM0.987228 2.30156C1.30775 1.31265 2.36762 0.771304 3.35501 1.09266C4.34187 1.41385 4.88192 2.47642 4.56107 3.46537C4.24055 4.45445 3.18031 4.99575 2.19362 4.67428C1.20627 4.35292 0.666053 3.29064 0.987228 2.30156ZM4.29402 10.99C3.68384 11.8313 2.50877 12.0178 1.66936 11.4063C0.829635 10.7951 0.643535 9.61766 1.25355 8.77635C1.86344 7.93503 3.03848 7.7485 3.87805 8.35967C4.71765 8.97095 4.90391 10.1486 4.29402 10.99ZM8.23878 10.99C7.62905 10.1487 7.81515 8.97104 8.65476 8.35975C9.49432 7.74842 10.6692 7.93511 11.2793 8.77626C11.8894 9.61758 11.7032 10.7952 10.8636 11.4066C10.024 12.0178 8.84896 11.8314 8.23878 10.99Z" fill="white"/>
<path d="M9.17877 1.09274L9.33352 1.56819L9.33361 1.56816L9.17877 1.09274ZM11.5466 2.30148L11.0709 2.45557L11.0709 2.45569L11.5466 2.30148ZM10.3402 4.67432L10.495 5.14975L10.495 5.14973L10.3402 4.67432ZM7.97238 3.46529L7.49674 3.61945L7.49678 3.61957L7.97238 3.46529ZM0.987228 2.30156L1.46278 2.45599L1.46287 2.45572L0.987228 2.30156ZM3.35501 1.09266L3.50975 0.617207L3.50975 0.617206L3.35501 1.09266ZM4.56107 3.46537L4.08548 3.31108L4.08543 3.31123L4.56107 3.46537ZM2.19362 4.67428L2.34851 4.19887L2.34836 4.19883L2.19362 4.67428ZM4.29402 10.99L4.69877 11.2835L4.69884 11.2834L4.29402 10.99ZM1.66936 11.4063L1.96376 11.0022L1.96359 11.002L1.66936 11.4063ZM1.25355 8.77635L1.65834 9.06985L1.65837 9.06981L1.25355 8.77635ZM3.87805 8.35967L4.17234 7.95545L4.17231 7.95543L3.87805 8.35967ZM8.23878 10.99L7.83393 11.2835L7.83403 11.2836L8.23878 10.99ZM8.65476 8.35975L8.94905 8.76397L8.94908 8.76395L8.65476 8.35975ZM11.2793 8.77626L10.8745 9.06982L10.8745 9.06982L11.2793 8.77626ZM10.8636 11.4066L11.1579 11.8108L11.1579 11.8108L10.8636 11.4066ZM9.33361 1.56816C10.0573 1.33246 10.8355 1.72902 11.0709 2.45557L12.0222 2.14739C11.6169 0.896108 10.2746 0.209983 9.02393 0.617316L9.33361 1.56816ZM11.0709 2.45569C11.3068 3.18304 10.9091 3.9631 10.1853 4.1989L10.495 5.14973C11.7449 4.74257 12.4277 3.39806 12.0222 2.14727L11.0709 2.45569ZM10.1854 4.19888C9.46209 4.4344 8.68384 4.03806 8.44798 3.31101L7.49678 3.61957C7.90263 4.87067 9.24444 5.55694 10.495 5.14975L10.1854 4.19888ZM8.44802 3.31113C8.21228 2.58375 8.6099 1.8037 9.33352 1.56819L9.02403 0.617285C7.77393 1.02415 7.09144 2.36892 7.49674 3.61945L8.44802 3.31113ZM1.46287 2.45572C1.6984 1.72905 2.47637 1.33251 3.20027 1.56811L3.50975 0.617206C2.25888 0.210097 0.917106 0.896247 0.511587 2.1474L1.46287 2.45572ZM3.20027 1.56811C3.92386 1.80362 4.32144 2.58376 4.08548 3.31108L5.03667 3.61967C5.4424 2.36908 4.75988 1.02408 3.50975 0.617207L3.20027 1.56811ZM4.08543 3.31123C3.84987 4.03811 3.07157 4.43446 2.34851 4.19887L2.03873 5.14968C3.28906 5.55705 4.63123 4.87079 5.03672 3.61951L4.08543 3.31123ZM2.34836 4.19883C1.62408 3.96309 1.22666 3.18315 1.46278 2.45599L0.511672 2.14714C0.105449 3.39813 0.788463 4.74275 2.03887 5.14973L2.34836 4.19883ZM3.88927 10.6964C3.4412 11.3142 2.57928 11.4505 1.96376 11.0022L1.37497 11.8105C2.43826 12.585 3.92649 12.3483 4.69877 11.2835L3.88927 10.6964ZM1.96359 11.002C1.34712 10.5534 1.21002 9.68816 1.65834 9.06985L0.84876 8.48284C0.077048 9.54716 0.31215 11.0369 1.37514 11.8106L1.96359 11.002ZM1.65837 9.06981C2.10613 8.45216 2.96801 8.31565 3.58378 8.76391L4.17231 7.95543C3.10895 7.18135 1.62076 7.41791 0.848732 8.48288L1.65837 9.06981ZM3.58375 8.76388C4.20024 9.21273 4.3374 10.0782 3.8892 10.6965L4.69884 11.2834C5.47043 10.2191 5.23506 8.72918 4.17234 7.95545L3.58375 8.76388ZM8.64364 10.6966C8.19551 10.0783 8.33262 9.21277 8.94905 8.76397L8.36046 7.95553C7.29768 8.72931 7.0626 10.2192 7.83393 11.2835L8.64364 10.6966ZM8.94908 8.76395C9.56475 8.31565 10.4265 8.45214 10.8745 9.06982L11.684 8.48271C10.9119 7.41809 9.4239 7.18119 8.36044 7.95555L8.94908 8.76395ZM10.8745 9.06982C11.3229 9.68805 11.1858 10.5535 10.5693 11.0024L11.1579 11.8108C12.2206 11.037 12.456 9.54711 11.684 8.48271L10.8745 9.06982ZM10.5693 11.0023C9.95356 11.4507 9.09159 11.3143 8.64354 10.6965L7.83403 11.2836C8.60633 12.3484 10.0945 12.585 11.1579 11.8108L10.5693 11.0023Z" fill="white"/>
</svg>
