<svg width="13" height="13" viewBox="0 0 13 13" fill="none" xmlns="http://www.w3.org/2000/svg">
<path fill-rule="evenodd" clip-rule="evenodd" d="M9.68268 1.09274C10.6699 0.771219 11.7301 1.31256 12.0505 2.30148C12.3711 3.29055 11.8309 4.35284 10.8441 4.67432C9.85717 4.99567 8.79714 4.45437 8.47629 3.46529C8.15577 2.47633 8.69582 1.41393 9.68268 1.09274ZM1.49113 2.30156C1.81166 1.31265 2.87153 0.771304 3.85892 1.09266C4.84577 1.41385 5.38583 2.47642 5.06498 3.46537C4.74446 4.45445 3.68422 4.99575 2.69752 4.67428C1.71018 4.35292 1.16996 3.29064 1.49113 2.30156ZM4.79793 10.99C4.18775 11.8313 3.01267 12.0178 2.17327 11.4063C1.33354 10.7951 1.14744 9.61766 1.75746 8.77635C2.36735 7.93503 3.54239 7.7485 4.38195 8.35967C5.22156 8.97095 5.40782 10.1486 4.79793 10.99ZM8.74269 10.99C8.13296 10.1487 8.31906 8.97104 9.15866 8.35975C9.99823 7.74842 11.1731 7.93511 11.7832 8.77626C12.3933 9.61758 12.2071 10.7952 11.3675 11.4066C10.5279 12.0178 9.35287 11.8314 8.74269 10.99Z" fill="#5041BC"/>
<path d="M9.68268 1.09274L9.83742 1.56819L9.83752 1.56816L9.68268 1.09274ZM12.0505 2.30148L11.5748 2.45557L11.5748 2.45569L12.0505 2.30148ZM10.8441 4.67432L10.9989 5.14975L10.9989 5.14973L10.8441 4.67432ZM8.47629 3.46529L8.00065 3.61945L8.00069 3.61957L8.47629 3.46529ZM1.49113 2.30156L1.96669 2.45599L1.96677 2.45572L1.49113 2.30156ZM3.85892 1.09266L4.01366 0.617207L4.01366 0.617206L3.85892 1.09266ZM5.06498 3.46537L4.58938 3.31108L4.58933 3.31123L5.06498 3.46537ZM2.69752 4.67428L2.85242 4.19887L2.85227 4.19883L2.69752 4.67428ZM4.79793 10.99L5.20268 11.2835L5.20275 11.2834L4.79793 10.99ZM2.17327 11.4063L2.46766 11.0022L2.4675 11.002L2.17327 11.4063ZM1.75746 8.77635L2.16225 9.06985L2.16228 9.06981L1.75746 8.77635ZM4.38195 8.35967L4.67625 7.95545L4.67622 7.95543L4.38195 8.35967ZM8.74269 10.99L8.33783 11.2835L8.33794 11.2836L8.74269 10.99ZM9.15866 8.35975L9.45296 8.76397L9.45298 8.76395L9.15866 8.35975ZM11.7832 8.77626L11.3784 9.06982L11.3784 9.06982L11.7832 8.77626ZM11.3675 11.4066L11.6618 11.8108L11.6618 11.8108L11.3675 11.4066ZM9.83752 1.56816C10.5612 1.33246 11.3394 1.72902 11.5748 2.45557L12.5261 2.14739C12.1208 0.896108 10.7785 0.209983 9.52784 0.617316L9.83752 1.56816ZM11.5748 2.45569C11.8107 3.18304 11.4131 3.9631 10.6892 4.1989L10.9989 5.14973C12.2488 4.74257 12.9316 3.39806 12.5261 2.14727L11.5748 2.45569ZM10.6893 4.19888C9.96599 4.4344 9.18774 4.03806 8.95189 3.31101L8.00069 3.61957C8.40653 4.87067 9.74835 5.55694 10.9989 5.14975L10.6893 4.19888ZM8.95193 3.31113C8.71618 2.58375 9.11381 1.8037 9.83742 1.56819L9.52793 0.617285C8.27784 1.02415 7.59535 2.36892 8.00065 3.61945L8.95193 3.31113ZM1.96677 2.45572C2.2023 1.72905 2.98028 1.33251 3.70418 1.56811L4.01366 0.617206C2.76278 0.210097 1.42101 0.896247 1.01549 2.1474L1.96677 2.45572ZM3.70417 1.56811C4.42777 1.80362 4.82535 2.58376 4.58939 3.31108L5.54058 3.61967C5.94631 2.36908 5.26378 1.02408 4.01366 0.617207L3.70417 1.56811ZM4.58933 3.31123C4.35378 4.03811 3.57548 4.43446 2.85242 4.19887L2.54263 5.14968C3.79296 5.55705 5.13514 4.87079 5.54063 3.61951L4.58933 3.31123ZM2.85227 4.19883C2.12799 3.96309 1.73056 3.18315 1.96669 2.45599L1.01558 2.14714C0.609355 3.39813 1.29237 4.74275 2.54278 5.14973L2.85227 4.19883ZM4.39317 10.6964C3.9451 11.3142 3.08318 11.4505 2.46766 11.0022L1.87888 11.8105C2.94216 12.585 4.4304 12.3483 5.20268 11.2835L4.39317 10.6964ZM2.4675 11.002C1.85103 10.5534 1.71393 9.68816 2.16225 9.06985L1.35267 8.48284C0.580954 9.54716 0.816056 11.0369 1.87904 11.8106L2.4675 11.002ZM2.16228 9.06981C2.61003 8.45216 3.47191 8.31565 4.08769 8.76391L4.67622 7.95543C3.61286 7.18135 2.12467 7.41791 1.35264 8.48288L2.16228 9.06981ZM4.08766 8.76388C4.70415 9.21273 4.8413 10.0782 4.39311 10.6965L5.20275 11.2834C5.97434 10.2191 5.73897 8.72918 4.67625 7.95545L4.08766 8.76388ZM9.14755 10.6966C8.69941 10.0783 8.83653 9.21277 9.45296 8.76397L8.86437 7.95553C7.80159 8.72931 7.5665 10.2192 8.33783 11.2835L9.14755 10.6966ZM9.45298 8.76395C10.0687 8.31565 10.9304 8.45214 11.3784 9.06982L12.1879 8.48271C11.4158 7.41809 9.92781 7.18119 8.86435 7.95555L9.45298 8.76395ZM11.3784 9.06982C11.8268 9.68805 11.6897 10.5535 11.0732 11.0024L11.6618 11.8108C12.7245 11.037 12.9599 9.54711 12.1879 8.48271L11.3784 9.06982ZM11.0732 11.0023C10.4575 11.4507 9.5955 11.3143 9.14744 10.6965L8.33794 11.2836C9.11024 12.3484 10.5984 12.585 11.6618 11.8108L11.0732 11.0023Z" fill="#5041BC"/>
</svg>
